<svg width="41" height="40" viewBox="0 0 41 40" fill="none" xmlns="http://www.w3.org/2000/svg">
<g clip-path="url(#clip0_201_4651)">
<path d="M26.5134 9.92921L20.6146 15.828L14.7158 9.92921C13.992 9.20538 12.818 9.20538 12.0942 9.92921L10.7833 11.24C10.0595 11.9639 10.0595 13.1379 10.7833 13.8617L16.6821 19.7605L10.7833 25.6593C10.0595 26.3831 10.0595 27.5571 10.7833 28.2809L12.0942 29.5918C12.818 30.3156 13.992 30.3156 14.7158 29.5918L20.6146 23.693L26.5134 29.5918C27.2372 30.3156 28.4112 30.3156 29.1351 29.5918L30.4459 28.2809C31.1697 27.5571 31.1697 26.3831 30.4459 25.6593L24.5471 19.7605L30.4459 13.8617C31.1697 13.1379 31.1697 11.9639 30.4459 11.24L29.1351 9.92921C28.4112 9.20538 27.2372 9.20538 26.5134 9.92921Z" fill="#F3EDE7"/>
</g>
<defs>
<clipPath id="clip0_201_4651">
<rect width="25.9533" height="29.6609" fill="white" transform="translate(0.951294 18.4503) rotate(-45)"/>
</clipPath>
</defs>
</svg>
